<?xml version="1.0" encoding="UTF-8"?>
<svg width="146px" height="37px" viewBox="0 0 146 37" version="1.1" xmlns="http://www.w3.org/2000/svg" xmlns:xlink="http://www.w3.org/1999/xlink">
    <!-- Generator: Sketch 48.2 (47327) - http://www.bohemiancoding.com/sketch -->
    <title>Group 8</title>
    <desc>Created with Sketch.</desc>
    <defs></defs>
    <g id="01-copy-7" stroke="none" stroke-width="1" fill="none" fill-rule="evenodd" transform="translate(-193.000000, -91.000000)">
        <g id="Group-9" transform="translate(189.000000, 81.000000)">
            <g id="Group-8">
                <text id="Lum-s" font-family="Roboto-Light, Roboto" font-size="48" font-weight="300" fill="#151945">
                    <tspan x="0" y="45">Lum   s</tspan>
                </text>
                <g id="Group-2-Copy" transform="translate(91.000000, 13.000000)" stroke="#151945" stroke-linecap="round" stroke-width="2">
                    <path d="M18.6757367,32 C26.0345241,32 32,26.1797017 32,19 C32,17.1654373 31.610509,15.4196312 30.9078052,13.8370035 C28.8604239,9.22589661 24.1542013,6 18.6757367,6 C12.7540956,6 7.73469003,9.76891966 6,14.9822596" id="Oval" transform="translate(19.000000, 19.000000) rotate(-138.000000) translate(-19.000000, -19.000000) "></path>
                    <polyline id="Star" stroke-linejoin="round" transform="translate(19.000000, 22.500000) rotate(28.000000) translate(-19.000000, -22.500000) " points="22.0155742 32 19 21.9150551 15.2917961 23.7516574 16 19.8616712 13 17.1067677 17.145898 16.5392264 19 13 20.854102 16.5392264 25 17.1067677 22 19.8616712"></polyline>
                    <path d="M30,19.3769531 L32,18" id="Path-2"></path>
                    <path d="M31,22.3769531 L34,24" id="Path-2-Copy"></path>
                </g>
            </g>
        </g>
    </g>
</svg>
